0
SECTION
2
HEADER
9
$LTSCALE
40
1.0
9
$LIMMIN
10
130
20
0
9
$LIMMAX
10
5870
20
5734
9
$EXTMIN
10
130
20
0
9
$EXTMAX
10
5870
20
5734
9
$SNAPMODE
70
0
9
$SNAPUNIT
10
1.0
20
1.0
9
$GRIDMODE
70
0
9
$GRIDUNIT
10
1.0
20
1.0
9
$ORTHOMODE
70
0
9
$TEXTSTYLE
7
txt
9
$CLAYER
8
1
9
$CECOLOR
62
7
9
$CELTYPE
6
CONTINUOUS
9
$PLINEWID
40
0.0
9
$OSMODE
70
0
9
$FILLMODE
70
1
9
$CHAMFERA
40
0.5
9
$CHAMFERB
40
0.5
9
$SCOORDS
70
1
9
$FILLETRAD
40
0.5
9
$INSBASE
10
0.0
20
0.0
9
$SPLFRAME
70
0
9
$SPLINESEGS
70
8
0
ENDSEC
0
SECTION
2
TABLES
0
TABLE
2
LTYPE
70
9
0
LTYPE
2
CONTINUOUS
70
64
3
Solid line
72
65
73
0
40
0.0
0
ENDTAB
0
TABLE
2
STYLE
70
1
0
STYLE
2
ROMANS
70
0
40
0.000
41
1.000
50
0.000
71
0
42
0.000
3
ROMANS
4

0
ENDTAB
0
TABLE
2
LAYER
70
10
0
LAYER
2
1
70
0
62
7
6
CONTINUOUS
0
LAYER
2
2
70
0
62
7
6
CONTINUOUS
0
LAYER
2
3
70
0
62
7
6
CONTINUOUS
0
LAYER
2
4
70
0
62
7
6
CONTINUOUS
0
LAYER
2
5
70
0
62
7
6
CONTINUOUS
0
LAYER
2
6
70
0
62
7
6
CONTINUOUS
0
LAYER
2
7
70
0
62
7
6
CONTINUOUS
0
LAYER
2
8
70
0
62
7
6
CONTINUOUS
0
LAYER
2
9
70
0
62
7
6
CONTINUOUS
0
LAYER
2
10
70
0
62
7
6
CONTINUOUS
0
ENDTAB
0
ENDSEC
0
SECTION
2
ENTITIES
0
POLYLINE
8
0
62
7
66
1
40
1
41
1
0
VERTEX
8
0
10
5735
20
4220
0
VERTEX
8
0
10
4235
20
3500
0
VERTEX
8
0
10
5735
20
3945
0
VERTEX
8
0
10
5735
20
4220
0
SEQEND
0
POLYLINE
8
0
62
7
66
1
40
1
41
1
0
VERTEX
8
0
10
160
20
1305
0
VERTEX
8
0
10
160
20
4405
0
VERTEX
8
0
10
1855
20
3585
0
VERTEX
8
0
10
1918
20
3647
0
VERTEX
8
0
10
415
20
5175
0
VERTEX
8
0
10
160
20
5710
0
VERTEX
8
0
10
690
20
5455
0
VERTEX
8
0
10
2220
20
3945
0
VERTEX
8
0
10
2270
20
3995
0
VERTEX
8
0
10
1441
20
5714
0
VERTEX
8
0
10
4560
20
5714
0
VERTEX
8
0
10
3730
20
3995
0
VERTEX
8
0
10
3780
20
3945
0
VERTEX
8
0
10
5310
20
5455
0
VERTEX
8
0
10
5840
20
5710
0
VERTEX
8
0
10
5585
20
5175
0
VERTEX
8
0
10
4082
20
3647
0
VERTEX
8
0
10
4145
20
3585
0
VERTEX
8
0
10
5840
20
4405
0
VERTEX
8
0
10
5840
20
1305
0
SEQEND
0
POLYLINE
8
0
62
7
66
1
40
1
41
1
0
VERTEX
8
0
10
4110
20
5590
0
VERTEX
8
0
10
3640
20
4105
0
VERTEX
8
0
10
4360
20
5590
0
VERTEX
8
0
10
4110
20
5590
0
SEQEND
0
POLYLINE
8
0
62
7
66
1
40
1
41
1
0
VERTEX
8
0
10
3353
20
3939
0
VERTEX
8
0
10
3354
20
3940
0
VERTEX
8
0
10
3353
20
3940
0
VERTEX
8
0
10
3353
20
3939
0
SEQEND
0
POLYLINE
8
0
62
7
66
1
40
1
41
1
0
VERTEX
8
0
10
3640
20
4105
0
VERTEX
8
0
10
3670
20
5590
0
VERTEX
8
0
10
3355
20
4150
0
VERTEX
8
0
10
3230
20
5590
0
VERTEX
8
0
10
3005
20
4150
0
SEQEND
0
POLYLINE
8
0
62
7
66
1
40
1
41
1
0
VERTEX
8
0
10
4070
20
2974
0
VERTEX
8
0
10
3811
20
2864
0
VERTEX
8
0
10
4069
20
2754
0
VERTEX
8
0
10
4070
20
2754
0
VERTEX
8
0
10
4069
20
2754
0
VERTEX
8
0
10
3810
20
2630
0
VERTEX
8
0
10
4069
20
2515
0
VERTEX
8
0
10
4070
20
2515
0
VERTEX
8
0
10
4069
20
2515
0
VERTEX
8
0
10
3810
20
2398
0
VERTEX
8
0
10
4115
20
2276
0
VERTEX
8
0
10
4116
20
3451
0
VERTEX
8
0
10
3811
20
3329
0
VERTEX
8
0
10
4070
20
3212
0
VERTEX
8
0
10
4071
20
3213
0
VERTEX
8
0
10
4071
20
3212
0
VERTEX
8
0
10
4070
20
3212
0
VERTEX
8
0
10
3811
20
3097
0
VERTEX
8
0
10
4070
20
2974
0
VERTEX
8
0
10
4071
20
2974
0
VERTEX
8
0
10
4071
20
2973
0
VERTEX
8
0
10
4070
20
2974
0
SEQEND
0
POLYLINE
8
0
62
7
66
1
40
1
41
1
0
VERTEX
8
0
10
3925
20
3620
0
VERTEX
8
0
10
3650
20
3495
0
VERTEX
8
0
10
3765
20
3785
0
VERTEX
8
0
10
3925
20
3620
0
SEQEND
0
POLYLINE
8
0
62
7
66
1
40
1
41
1
0
VERTEX
8
0
10
3864
20
3862
0
VERTEX
8
0
10
5605
20
5480
0
VERTEX
8
0
10
3997
20
3731
0
VERTEX
8
0
10
3864
20
3862
0
SEQEND
0
POLYLINE
8
0
62
7
66
1
40
1
41
1
0
VERTEX
8
0
10
3311
20
3277
0
VERTEX
8
0
10
3276
20
3226
0
VERTEX
8
0
10
3248
20
3164
0
VERTEX
8
0
10
3230
20
3094
0
VERTEX
8
0
10
3220
20
3014
0
VERTEX
8
0
10
3212
20
2903
0
VERTEX
8
0
10
3254
20
2869
0
VERTEX
8
0
10
3288
20
2826
0
VERTEX
8
0
10
3296
20
2823
0
VERTEX
8
0
10
3314
20
2838
0
VERTEX
8
0
10
3318
20
2869
0
VERTEX
8
0
10
3311
20
3075
0
VERTEX
8
0
10
3311
20
3277
0
SEQEND
0
POLYLINE
8
0
62
7
66
1
40
1
41
1
0
VERTEX
8
0
10
3376
20
3414
0
VERTEX
8
0
10
3285
20
3348
0
VERTEX
8
0
10
3217
20
3258
0
VERTEX
8
0
10
3173
20
3143
0
VERTEX
8
0
10
3152
20
3003
0
VERTEX
8
0
10
3140
20
2854
0
VERTEX
8
0
10
3189
20
2842
0
VERTEX
8
0
10
3206
20
2826
0
VERTEX
8
0
10
3218
20
2801
0
VERTEX
8
0
10
3220
20
2800
0
VERTEX
8
0
10
3213
20
2762
0
VERTEX
8
0
10
3212
20
2758
0
VERTEX
8
0
10
3185
20
2737
0
VERTEX
8
0
10
3144
20
2728
0
VERTEX
8
0
10
3140
20
2728
0
VERTEX
8
0
10
3078
20
2837
0
VERTEX
8
0
10
3045
20
2972
0
VERTEX
8
0
10
3036
20
3112
0
VERTEX
8
0
10
3042
20
3257
0
VERTEX
8
0
10
3043
20
3365
0
VERTEX
8
0
10
3024
20
3459
0
VERTEX
8
0
10
2995
20
3505
0
VERTEX
8
0
10
2966
20
3459
0
VERTEX
8
0
10
2948
20
3365
0
VERTEX
8
0
10
2948
20
3257
0
VERTEX
8
0
10
2955
20
3112
0
VERTEX
8
0
10
2945
20
2972
0
VERTEX
8
0
10
2913
20
2837
0
VERTEX
8
0
10
2886
20
2780
0
VERTEX
8
0
10
2850
20
2728
0
VERTEX
8
0
10
2846
20
2728
0
VERTEX
8
0
10
2805
20
2737
0
VERTEX
8
0
10
2778
20
2758
0
VERTEX
8
0
10
2777
20
2762
0
VERTEX
8
0
10
2770
20
2800
0
VERTEX
8
0
10
2772
20
2801
0
VERTEX
8
0
10
2785
20
2826
0
VERTEX
8
0
10
2802
20
2842
0
VERTEX
8
0
10
2850
20
2854
0
VERTEX
8
0
10
2837
20
3003
0
VERTEX
8
0
10
2817
20
3143
0
VERTEX
8
0
10
2773
20
3258
0
VERTEX
8
0
10
2706
20
3348
0
VERTEX
8
0
10
2614
20
3414
0
VERTEX
8
0
10
2614
20
3193
0
VERTEX
8
0
10
2614
20
2511
0
VERTEX
8
0
10
2618
20
2511
0
VERTEX
8
0
10
2827
20
2511
0
VERTEX
8
0
10
2828
20
2507
0
VERTEX
8
0
10
2855
20
2432
0
VERTEX
8
0
10
2892
20
2366
0
VERTEX
8
0
10
2939
20
2310
0
VERTEX
8
0
10
2995
20
2263
0
VERTEX
8
0
10
3052
20
2310
0
VERTEX
8
0
10
3099
20
2366
0
VERTEX
8
0
10
3136
20
2432
0
VERTEX
8
0
10
3162
20
2507
0
VERTEX
8
0
10
3163
20
2511
0
VERTEX
8
0
10
3372
20
2511
0
VERTEX
8
0
10
3376
20
2511
0
VERTEX
8
0
10
3376
20
3193
0
VERTEX
8
0
10
3376
20
3414
0
SEQEND
0
POLYLINE
8
0
62
7
66
1
40
1
41
1
0
VERTEX
8
0
10
3311
20
2754
0
VERTEX
8
0
10
3311
20
2758
0
VERTEX
8
0
10
3274
20
2749
0
VERTEX
8
0
10
3255
20
2718
0
VERTEX
8
0
10
3248
20
2707
0
VERTEX
8
0
10
3211
20
2678
0
VERTEX
8
0
10
3159
20
2663
0
VERTEX
8
0
10
3168
20
2623
0
VERTEX
8
0
10
3170
20
2575
0
VERTEX
8
0
10
3170
20
2571
0
VERTEX
8
0
10
3307
20
2571
0
VERTEX
8
0
10
3311
20
2571
0
VERTEX
8
0
10
3311
20
2754
0
SEQEND
0
POLYLINE
8
0
62
7
66
1
40
1
41
1
0
VERTEX
8
0
10
3650
20
2223
0
VERTEX
8
0
10
3765
20
1933
0
VERTEX
8
0
10
3925
20
2098
0
VERTEX
8
0
10
3650
20
2223
0
SEQEND
0
POLYLINE
8
0
62
7
66
1
40
1
41
1
0
VERTEX
8
0
10
5840
20
1305
0
VERTEX
8
0
10
4128
20
2137
0
VERTEX
8
0
10
4100
20
2110
0
SEQEND
0
POLYLINE
8
0
62
7
66
1
40
1
41
1
0
VERTEX
8
0
10
4235
20
3500
0
VERTEX
8
0
10
4235
20
2235
0
SEQEND
0
POLYLINE
8
0
62
7
66
1
40
1
41
1
0
VERTEX
8
0
10
3005
20
3985
0
VERTEX
8
0
10
3592
20
3985
0
VERTEX
8
0
10
3470
20
3680
0
VERTEX
8
0
10
3353
20
3939
0
VERTEX
8
0
10
3238
20
3680
0
VERTEX
8
0
10
3115
20
3939
0
VERTEX
8
0
10
3005
20
3680
0
SEQEND
0
POLYLINE
8
0
62
7
66
1
40
1
41
1
0
VERTEX
8
0
10
4235
20
2235
0
VERTEX
8
0
10
5735
20
2210
0
VERTEX
8
0
10
4287
20
2505
0
VERTEX
8
0
10
5735
20
2640
0
VERTEX
8
0
10
4287
20
2855
0
VERTEX
8
0
10
5735
20
3075
0
VERTEX
8
0
10
4287
20
3200
0
VERTEX
8
0
10
5735
20
3510
0
VERTEX
8
0
10
4235
20
3500
0
SEQEND
0
POLYLINE
8
0
62
7
66
1
40
1
41
1
0
VERTEX
8
0
10
2360
20
4105
0
VERTEX
8
0
10
1640
20
5590
0
VERTEX
8
0
10
1890
20
5590
0
VERTEX
8
0
10
2360
20
4105
0
VERTEX
8
0
10
2330
20
5590
0
VERTEX
8
0
10
2645
20
4150
0
VERTEX
8
0
10
2770
20
5590
0
VERTEX
8
0
10
2995
20
4150
0
SEQEND
0
POLYLINE
8
0
62
7
66
1
40
1
41
1
0
VERTEX
8
0
10
2995
20
3985
0
VERTEX
8
0
10
2408
20
3985
0
VERTEX
8
0
10
2530
20
3680
0
VERTEX
8
0
10
2647
20
3939
0
VERTEX
8
0
10
2647
20
3940
0
VERTEX
8
0
10
2647
20
3939
0
VERTEX
8
0
10
2762
20
3680
0
VERTEX
8
0
10
2886
20
3939
0
VERTEX
8
0
10
2886
20
3940
0
VERTEX
8
0
10
2886
20
3939
0
VERTEX
8
0
10
2995
20
3680
0
SEQEND
0
POLYLINE
8
0
62
7
66
1
40
1
41
1
0
VERTEX
8
0
10
3115
20
3940
0
VERTEX
8
0
10
3114
20
3940
0
VERTEX
8
0
10
3115
20
3939
0
VERTEX
8
0
10
3115
20
3940
0
SEQEND
0
POLYLINE
8
0
62
7
66
1
40
1
41
1
0
VERTEX
8
0
10
2360
20
4105
0
VERTEX
8
0
10
2995
20
4105
0
SEQEND
0
POLYLINE
8
0
62
7
66
1
40
1
41
1
0
VERTEX
8
0
10
1765
20
2235
0
VERTEX
8
0
10
265
20
1495
0
VERTEX
8
0
10
265
20
1785
0
VERTEX
8
0
10
1765
20
2235
0
VERTEX
8
0
10
265
20
2210
0
VERTEX
8
0
10
1713
20
2505
0
VERTEX
8
0
10
265
20
2640
0
VERTEX
8
0
10
1713
20
2855
0
VERTEX
8
0
10
265
20
3075
0
VERTEX
8
0
10
1713
20
3200
0
VERTEX
8
0
10
265
20
3510
0
VERTEX
8
0
10
1765
20
3500
0
VERTEX
8
0
10
265
20
3945
0
VERTEX
8
0
10
265
20
4220
0
VERTEX
8
0
10
1765
20
3500
0
SEQEND
0
POLYLINE
8
0
62
7
66
1
40
1
41
1
0
VERTEX
8
0
10
2679
20
3277
0
VERTEX
8
0
10
2715
20
3226
0
VERTEX
8
0
10
2742
20
3164
0
VERTEX
8
0
10
2761
20
3094
0
VERTEX
8
0
10
2770
20
3014
0
VERTEX
8
0
10
2778
20
2903
0
VERTEX
8
0
10
2737
20
2869
0
VERTEX
8
0
10
2701
20
2826
0
VERTEX
8
0
10
2694
20
2823
0
VERTEX
8
0
10
2677
20
2838
0
VERTEX
8
0
10
2672
20
2869
0
VERTEX
8
0
10
2679
20
3075
0
VERTEX
8
0
10
2679
20
3277
0
SEQEND
0
POLYLINE
8
0
62
7
66
1
40
1
41
1
0
VERTEX
8
0
10
2350
20
3495
0
VERTEX
8
0
10
2235
20
3785
0
VERTEX
8
0
10
2075
20
3620
0
VERTEX
8
0
10
2350
20
3495
0
SEQEND
0
POLYLINE
8
0
62
7
66
1
40
1
41
1
0
VERTEX
8
0
10
1930
20
2974
0
VERTEX
8
0
10
2190
20
3097
0
VERTEX
8
0
10
1930
20
3212
0
VERTEX
8
0
10
1930
20
3213
0
VERTEX
8
0
10
1930
20
3212
0
VERTEX
8
0
10
2190
20
3329
0
VERTEX
8
0
10
1885
20
3451
0
VERTEX
8
0
10
1886
20
2276
0
VERTEX
8
0
10
2191
20
2398
0
VERTEX
8
0
10
1931
20
2515
0
VERTEX
8
0
10
2191
20
2630
0
VERTEX
8
0
10
1931
20
2754
0
VERTEX
8
0
10
2190
20
2864
0
VERTEX
8
0
10
1930
20
2974
0
VERTEX
8
0
10
1930
20
2973
0
VERTEX
8
0
10
1930
20
2974
0
SEQEND
0
POLYLINE
8
0
62
7
66
1
40
1
41
1
0
VERTEX
8
0
10
2137
20
3862
0
VERTEX
8
0
10
395
20
5480
0
VERTEX
8
0
10
2003
20
3731
0
VERTEX
8
0
10
2137
20
3862
0
SEQEND
0
POLYLINE
8
0
62
7
66
1
40
1
41
1
0
VERTEX
8
0
10
160
20
1305
0
VERTEX
8
0
10
1873
20
2137
0
VERTEX
8
0
10
1900
20
2110
0
SEQEND
0
POLYLINE
8
0
62
7
66
1
40
1
41
1
0
VERTEX
8
0
10
2350
20
2223
0
VERTEX
8
0
10
2235
20
1933
0
VERTEX
8
0
10
2075
20
2098
0
VERTEX
8
0
10
2350
20
2223
0
SEQEND
0
POLYLINE
8
0
62
7
66
1
40
1
41
1
0
VERTEX
8
0
10
3067
20
2713
0
VERTEX
8
0
10
3028
20
2786
0
VERTEX
8
0
10
2999
20
2869
0
VERTEX
8
0
10
2999
20
2873
0
VERTEX
8
0
10
2995
20
2862
0
VERTEX
8
0
10
2991
20
2873
0
VERTEX
8
0
10
2991
20
2869
0
VERTEX
8
0
10
2962
20
2786
0
VERTEX
8
0
10
2923
20
2713
0
VERTEX
8
0
10
2923
20
2710
0
VERTEX
8
0
10
2995
20
2663
0
VERTEX
8
0
10
3066
20
2710
0
VERTEX
8
0
10
3067
20
2713
0
SEQEND
0
POLYLINE
8
0
62
7
66
1
40
1
41
1
0
VERTEX
8
0
10
2960
20
2579
0
VERTEX
8
0
10
2961
20
2575
0
VERTEX
8
0
10
2923
20
2572
0
VERTEX
8
0
10
2885
20
2577
0
VERTEX
8
0
10
2884
20
2579
0
VERTEX
8
0
10
2895
20
2644
0
VERTEX
8
0
10
2896
20
2648
0
VERTEX
8
0
10
2923
20
2639
0
VERTEX
8
0
10
2943
20
2622
0
VERTEX
8
0
10
2945
20
2621
0
VERTEX
8
0
10
2960
20
2579
0
SEQEND
0
POLYLINE
8
0
62
7
66
1
40
1
41
1
0
VERTEX
8
0
10
3029
20
2575
0
VERTEX
8
0
10
3105
20
2577
0
VERTEX
8
0
10
3105
20
2579
0
VERTEX
8
0
10
3094
20
2644
0
VERTEX
8
0
10
3094
20
2648
0
VERTEX
8
0
10
3047
20
2622
0
VERTEX
8
0
10
3044
20
2621
0
VERTEX
8
0
10
3030
20
2579
0
VERTEX
8
0
10
3029
20
2575
0
SEQEND
0
POLYLINE
8
0
62
7
66
1
40
1
41
1
0
VERTEX
8
0
10
2896
20
2507
0
VERTEX
8
0
10
2957
20
2507
0
VERTEX
8
0
10
2961
20
2507
0
VERTEX
8
0
10
2959
20
2385
0
VERTEX
8
0
10
2957
20
2385
0
VERTEX
8
0
10
2920
20
2438
0
VERTEX
8
0
10
2896
20
2503
0
VERTEX
8
0
10
2896
20
2507
0
SEQEND
0
POLYLINE
8
0
62
7
66
1
40
1
41
1
0
VERTEX
8
0
10
3029
20
2507
0
VERTEX
8
0
10
3031
20
2385
0
VERTEX
8
0
10
3033
20
2385
0
VERTEX
8
0
10
3070
20
2438
0
VERTEX
8
0
10
3094
20
2503
0
VERTEX
8
0
10
3094
20
2507
0
VERTEX
8
0
10
3033
20
2507
0
VERTEX
8
0
10
3029
20
2507
0
SEQEND
0
POLYLINE
8
0
62
7
66
1
40
1
41
1
0
VERTEX
8
0
10
2679
20
2758
0
VERTEX
8
0
10
2716
20
2749
0
VERTEX
8
0
10
2735
20
2718
0
VERTEX
8
0
10
2742
20
2707
0
VERTEX
8
0
10
2780
20
2678
0
VERTEX
8
0
10
2831
20
2663
0
VERTEX
8
0
10
2820
20
2575
0
VERTEX
8
0
10
2820
20
2571
0
VERTEX
8
0
10
2682
20
2571
0
VERTEX
8
0
10
2679
20
2571
0
VERTEX
8
0
10
2679
20
2754
0
VERTEX
8
0
10
2679
20
2758
0
SEQEND
0
POLYLINE
8
0
62
7
66
1
40
1
41
1
0
VERTEX
8
0
10
1765
20
3500
0
VERTEX
8
0
10
1765
20
2235
0
SEQEND
0
POLYLINE
8
0
62
7
66
1
40
1
41
1
0
VERTEX
8
0
10
3005
20
1749
0
VERTEX
8
0
10
3592
20
1749
0
VERTEX
8
0
10
3470
20
2054
0
VERTEX
8
0
10
3353
20
1794
0
VERTEX
8
0
10
3354
20
1794
0
VERTEX
8
0
10
3353
20
1794
0
VERTEX
8
0
10
3238
20
2054
0
VERTEX
8
0
10
3115
20
1794
0
VERTEX
8
0
10
3114
20
1794
0
VERTEX
8
0
10
3115
20
1794
0
VERTEX
8
0
10
3005
20
2054
0
SEQEND
0
POLYLINE
8
0
62
7
66
1
40
1
41
1
0
VERTEX
8
0
10
2230
20
1775
0
VERTEX
8
0
10
2269
20
1736
0
SEQEND
0
POLYLINE
8
0
62
7
66
1
40
1
41
1
0
VERTEX
8
0
10
1890
20
144
0
VERTEX
8
0
10
2360
20
1629
0
VERTEX
8
0
10
1640
20
144
0
VERTEX
8
0
10
1890
20
144
0
SEQEND
0
POLYLINE
8
0
62
7
66
1
40
1
41
1
0
VERTEX
8
0
10
2360
20
1629
0
VERTEX
8
0
10
2995
20
1629
0
SEQEND
0
POLYLINE
8
0
62
7
66
1
40
1
41
1
0
VERTEX
8
0
10
2360
20
1629
0
VERTEX
8
0
10
2330
20
144
0
VERTEX
8
0
10
2645
20
1584
0
VERTEX
8
0
10
2770
20
144
0
VERTEX
8
0
10
2995
20
1584
0
SEQEND
0
POLYLINE
8
0
62
7
66
1
40
1
41
1
0
VERTEX
8
0
10
3640
20
1629
0
VERTEX
8
0
10
4360
20
144
0
VERTEX
8
0
10
4110
20
144
0
VERTEX
8
0
10
3640
20
1629
0
VERTEX
8
0
10
3670
20
144
0
VERTEX
8
0
10
3355
20
1584
0
VERTEX
8
0
10
3230
20
144
0
VERTEX
8
0
10
3005
20
1584
0
SEQEND
0
POLYLINE
8
0
62
7
66
1
40
1
41
1
0
VERTEX
8
0
10
2995
20
1749
0
VERTEX
8
0
10
2408
20
1749
0
VERTEX
8
0
10
2530
20
2054
0
VERTEX
8
0
10
2647
20
1794
0
VERTEX
8
0
10
2762
20
2054
0
VERTEX
8
0
10
2886
20
1794
0
VERTEX
8
0
10
2995
20
2054
0
SEQEND
0
POLYLINE
8
0
62
7
66
1
40
1
41
1
0
VERTEX
8
0
10
2140
20
1875
0
VERTEX
8
0
10
1215
20
910
0
VERTEX
8
0
10
1100
20
980
0
VERTEX
8
0
10
1040
20
1093
0
VERTEX
8
0
10
2005
20
2010
0
SEQEND
0
POLYLINE
8
0
62
7
66
1
40
1
41
1
0
VERTEX
8
0
10
1900
20
2110
0
VERTEX
8
0
10
975
20
1205
0
VERTEX
8
0
10
795
20
1515
0
VERTEX
8
0
10
580
20
1290
0
VERTEX
8
0
10
860
20
1000
0
VERTEX
8
0
10
505
20
635
0
SEQEND
0
POLYLINE
8
0
62
7
66
1
40
1
41
1
0
VERTEX
8
0
10
505
20
635
0
VERTEX
8
0
10
405
20
735
0
SEQEND
0
POLYLINE
8
0
62
7
66
1
40
1
41
1
0
VERTEX
8
0
10
405
20
735
0
VERTEX
8
0
10
225
20
555
0
VERTEX
8
0
10
325
20
450
0
VERTEX
8
0
10
150
20
20
0
VERTEX
8
0
10
582
20
198
0
VERTEX
8
0
10
685
20
100
0
VERTEX
8
0
10
865
20
260
0
SEQEND
0
POLYLINE
8
0
62
7
66
1
40
1
41
1
0
VERTEX
8
0
10
510
20
275
0
VERTEX
8
0
10
240
20
110
0
VERTEX
8
0
10
405
20
375
0
VERTEX
8
0
10
510
20
275
0
SEQEND
0
POLYLINE
8
0
62
7
66
1
40
1
41
1
0
VERTEX
8
0
10
4560
20
20
0
VERTEX
8
0
10
4550
20
20
0
VERTEX
8
0
10
1450
20
20
0
VERTEX
8
0
10
1441
20
20
0
SEQEND
0
POLYLINE
8
0
62
7
66
1
40
1
41
1
0
VERTEX
8
0
10
765
20
360
0
VERTEX
8
0
10
1133
20
732
0
VERTEX
8
0
10
1420
20
445
0
SEQEND
0
POLYLINE
8
0
62
7
66
1
40
1
41
1
0
VERTEX
8
0
10
865
20
260
0
VERTEX
8
0
10
765
20
360
0
SEQEND
0
POLYLINE
8
0
62
7
66
1
40
1
41
1
0
VERTEX
8
0
10
2230
20
1775
0
VERTEX
8
0
10
1330
20
850
0
VERTEX
8
0
10
1660
20
660
0
VERTEX
8
0
10
1425
20
440
0
SEQEND
0
POLYLINE
8
0
62
7
66
1
40
1
41
1
0
VERTEX
8
0
10
2269
20
1736
0
VERTEX
8
0
10
1450
20
20
0
SEQEND
0
POLYLINE
8
0
62
7
66
1
40
1
41
1
0
VERTEX
8
0
10
5735
20
1785
0
VERTEX
8
0
10
4235
20
2235
0
VERTEX
8
0
10
5735
20
1495
0
VERTEX
8
0
10
5735
20
1785
0
SEQEND
0
POLYLINE
8
0
62
7
66
1
40
1
41
1
0
VERTEX
8
0
10
3860
20
1875
0
VERTEX
8
0
10
4785
20
910
0
VERTEX
8
0
10
4900
20
980
0
VERTEX
8
0
10
4960
20
1093
0
VERTEX
8
0
10
3995
20
2010
0
SEQEND
0
POLYLINE
8
0
62
7
66
1
40
1
41
1
0
VERTEX
8
0
10
4100
20
2110
0
VERTEX
8
0
10
5025
20
1205
0
VERTEX
8
0
10
5205
20
1515
0
VERTEX
8
0
10
5420
20
1290
0
VERTEX
8
0
10
5140
20
1000
0
VERTEX
8
0
10
5495
20
635
0
SEQEND
0
POLYLINE
8
0
62
7
66
1
40
1
41
1
0
VERTEX
8
0
10
5490
20
275
0
VERTEX
8
0
10
5760
20
110
0
VERTEX
8
0
10
5595
20
375
0
VERTEX
8
0
10
5490
20
275
0
SEQEND
0
POLYLINE
8
0
62
7
66
1
40
1
41
1
0
VERTEX
8
0
10
5235
20
360
0
VERTEX
8
0
10
4868
20
732
0
VERTEX
8
0
10
4580
20
445
0
SEQEND
0
POLYLINE
8
0
62
7
66
1
40
1
41
1
0
VERTEX
8
0
10
5135
20
260
0
VERTEX
8
0
10
5235
20
360
0
SEQEND
0
POLYLINE
8
0
62
7
66
1
40
1
41
1
0
VERTEX
8
0
10
5595
20
735
0
VERTEX
8
0
10
5775
20
555
0
VERTEX
8
0
10
5675
20
450
0
VERTEX
8
0
10
5850
20
20
0
VERTEX
8
0
10
5419
20
198
0
VERTEX
8
0
10
5315
20
100
0
VERTEX
8
0
10
5135
20
260
0
SEQEND
0
POLYLINE
8
0
62
7
66
1
40
1
41
1
0
VERTEX
8
0
10
5495
20
635
0
VERTEX
8
0
10
5595
20
735
0
SEQEND
0
POLYLINE
8
0
62
7
66
1
40
1
41
1
0
VERTEX
8
0
10
3731
20
1736
0
VERTEX
8
0
10
3770
20
1775
0
SEQEND
0
POLYLINE
8
0
62
7
66
1
40
1
41
1
0
VERTEX
8
0
10
3770
20
1775
0
VERTEX
8
0
10
4670
20
850
0
VERTEX
8
0
10
4340
20
660
0
VERTEX
8
0
10
4575
20
440
0
SEQEND
0
POLYLINE
8
0
62
7
66
1
40
1
41
1
0
VERTEX
8
0
10
4550
20
20
0
VERTEX
8
0
10
3731
20
1736
0
SEQEND
0
POLYLINE
8
0
62
7
66
1
40
1
41
1
0
VERTEX
8
0
10
3640
20
4105
0
VERTEX
8
0
10
3005
20
4105
0
SEQEND
0
POLYLINE
8
0
62
7
66
1
40
1
41
1
0
VERTEX
8
0
10
3640
20
1629
0
VERTEX
8
0
10
3005
20
1629
0
SEQEND
0
POLYLINE
8
0
62
7
66
1
40
1
41
1
0
VERTEX
8
0
10
3995
20
2010
0
VERTEX
8
0
10
3860
20
1875
0
SEQEND
0
POLYLINE
8
0
62
7
66
1
40
1
41
1
0
VERTEX
8
0
10
2005
20
2010
0
VERTEX
8
0
10
2140
20
1875
0
SEQEND
0
ENDSEC
0
EOF
